<svg xmlns="http://www.w3.org/2000/svg" viewBox="0 0 900 400" style="background:#0d1117;font-family:JetBrains Mono,monospace">
  <defs>
    <marker id="arr" markerWidth="8" markerHeight="8" refX="6" refY="3" orient="auto">
      <path d="M0,0 L0,6 L8,3 z" fill="#00ffff"/>
    </marker>
  </defs>
  <text x="450" y="35" fill="#00ffff" font-size="16" font-weight="bold" text-anchor="middle">Network Scanner  Architecture (Placeholder)</text>
  <rect x="30" y="80" width="160" height="55" rx="8" fill="#1a2332" stroke="#00ffff" stroke-width="1.5"/>
  <text x="110" y="104" fill="#e2f0f0" font-size="11" text-anchor="middle">argparse CLI</text>
  <text x="110" y="120" fill="#888" font-size="9" text-anchor="middle">discover / scan / banner</text>
  <rect x="260" y="80" width="160" height="55" rx="8" fill="#1a2332" stroke="#22c55e" stroke-width="1.5"/>
  <text x="340" y="104" fill="#e2f0f0" font-size="11" text-anchor="middle">Discovery</text>
  <text x="340" y="120" fill="#888" font-size="9" text-anchor="middle">CIDR ping sweep</text>
  <rect x="490" y="80" width="160" height="55" rx="8" fill="#1a2332" stroke="#a855f7" stroke-width="1.5"/>
  <text x="570" y="104" fill="#e2f0f0" font-size="11" text-anchor="middle">Port Scanner</text>
  <text x="570" y="120" fill="#888" font-size="9" text-anchor="middle">ThreadPoolExecutor · TCP</text>
  <rect x="720" y="80" width="150" height="55" rx="8" fill="#1a2332" stroke="#00ffff" stroke-width="1.5"/>
  <text x="795" y="104" fill="#e2f0f0" font-size="11" text-anchor="middle">Banner Grabber</text>
  <text x="795" y="120" fill="#888" font-size="9" text-anchor="middle">per-port timeout</text>
  <rect x="340" y="240" width="200" height="55" rx="8" fill="#1a2332" stroke="#22c55e" stroke-width="1.5"/>
  <text x="440" y="264" fill="#e2f0f0" font-size="11" text-anchor="middle">Reporter</text>
  <text x="440" y="280" fill="#888" font-size="9" text-anchor="middle">text + JSON output</text>
  <line x1="190" y1="107" x2="255" y2="107" stroke="#00ffff" stroke-width="1.5" marker-end="url(#arr)"/>
  <line x1="420" y1="107" x2="485" y2="107" stroke="#00ffff" stroke-width="1.5" marker-end="url(#arr)"/>
  <line x1="650" y1="107" x2="715" y2="107" stroke="#00ffff" stroke-width="1.5" marker-end="url(#arr)"/>
  <line x1="570" y1="135" x2="440" y2="235" stroke="#a855f7" stroke-width="1.5" marker-end="url(#arr)"/>
  <text x="450" y="360" fill="#333" font-size="11" text-anchor="middle">[ PLACEHOLDER  replace with Excalidraw export ]</text>
</svg>
